<svg xmlns="http://www.w3.org/2000/svg"><defs><symbol id="memorablewords-2" viewBox="0 0 24 24" fill="none" stroke="currentColor" stroke-width="2" stroke-linecap="round" stroke-linejoin="round" class="feather feather-list"><line x1="8" y1="6" x2="20" y2="6"></line><line x1="8" y1="18" x2="19" y2="18"></line><line x1="3" y1="6" x2="3.01" y2="6"></line><line x1="3" y1="10" x2="3.01" y2="10"></line><line x1="3" y1="14" x2="3.01" y2="14"></line><line x1="3" y1="18" x2="3.01" y2="18"></line></symbol><symbol id="memorablewords" viewBox="0 0 24 24" fill="none" stroke="currentColor" stroke-width="2" stroke-linecap="round" stroke-linejoin="round" class="feather feather-list"><line x1="8" y1="6" x2="20" y2="6"></line><line x1="8" y1="10" x2="21" y2="10"></line><line x1="8" y1="14" x2="18" y2="14"></line><line x1="8" y1="18" x2="19" y2="18"></line><line x1="3" y1="6" x2="3.01" y2="6"></line><line x1="3" y1="10" x2="3.01" y2="10"></line><line x1="3" y1="14" x2="3.01" y2="14"></line><line x1="3" y1="18" x2="3.01" y2="18"></line></symbol><symbol id="alert-triangle" viewBox="0 0 24 24"><path d="M10.29 3.86L1.82 18a2 2 0 0 0 1.71 3h16.94a2 2 0 0 0 1.71-3L13.71 3.86a2 2 0 0 0-3.42 0z"></path><line x1="12" y1="9" x2="12" y2="13"></line><line x1="12" y1="17" x2="12.01" y2="17"></line></symbol><symbol id="arrow-left" viewBox="0 0 24 24"><line x1="19" y1="12" x2="5" y2="12"></line><polyline points="12 19 5 12 12 5"></polyline></symbol><symbol id="arrow-right" viewBox="0 0 24 24" fill="none" stroke="currentColor" stroke-width="2" stroke-linecap="round" stroke-linejoin="round" class="feather feather-arrow-right"><line x1="5" y1="12" x2="19" y2="12"></line><polyline points="12 5 19 12 12 19"></polyline></symbol><symbol id="bookmark" viewBox="0 0 24 24"><path d="M19 21l-7-5-7 5V5a2 2 0 0 1 2-2h10a2 2 0 0 1 2 2z"></path></symbol><symbol id="check" viewBox="0 0 24 24" fill="none" stroke="currentColor" stroke-width="2" stroke-linecap="round" stroke-linejoin="round" class="feather feather-check"><polyline points="20 6 9 17 4 12"></polyline></symbol><symbol id="chevron-left" viewBox="0 0 24 24" fill="none" stroke="currentColor" stroke-width="2" stroke-linecap="round" stroke-linejoin="round" class="feather feather-chevron-left"><polyline points="15 18 9 12 15 6"></polyline></symbol><symbol id="chevron-right" viewBox="0 0 24 24" fill="none" stroke="currentColor" stroke-width="2" stroke-linecap="round" stroke-linejoin="round" class="feather feather-chevron-right"><polyline points="9 18 15 12 9 6"></polyline></symbol><symbol id="download" viewBox="0 0 24 24"><path d="M21 15v4a2 2 0 0 1-2 2H5a2 2 0 0 1-2-2v-4"></path><polyline points="7 10 12 15 17 10"></polyline><line x1="12" y1="15" x2="12" y2="3"></line></symbol><symbol id="eye-off" viewBox="0 0 24 24"><path d="M17.94 17.94A10.07 10.07 0 0 1 12 20c-7 0-11-8-11-8a18.45 18.45 0 0 1 5.06-5.94M9.9 4.24A9.12 9.12 0 0 1 12 4c7 0 11 8 11 8a18.5 18.5 0 0 1-2.16 3.19m-6.72-1.07a3 3 0 1 1-4.24-4.24"></path><line x1="1" y1="1" x2="23" y2="23"></line></symbol><symbol id="eye" viewBox="0 0 24 24"><path d="M1 12s4-8 11-8 11 8 11 8-4 8-11 8-11-8-11-8z"></path><circle cx="12" cy="12" r="3"></circle></symbol><symbol id="fast-forward" viewBox="0 0 24 24"><polygon points="13 19 22 12 13 5 13 19"></polygon><polygon points="2 19 11 12 2 5 2 19"></polygon></symbol><symbol id="flip" stroke-linejoin="round" stroke-linecap="round" stroke-width="2" stroke="currentColor" fill="none" viewBox="0 0 24 24"><path d="M8 6L2 16c-.765 1.325-.53 2.983 1 3h5z" fill="currentColor"/><path d="M16 6l6.18 10c.765 1.325-.18 2.983-1.71 3H16zm-4-2V2m0 8V8m0 14v-2m0-4v-2"/></symbol><symbol id="flip-2" fill="none" stroke="currentColor" stroke-width="2" stroke-linecap="round" stroke-linejoin="round"><path d="M8 6L2 16c-.765 1.325-.53 2.983 1 3h5z"/><path d="M16 6l6.18 10c.765 1.325-.18 2.983-1.71 3H16z" fill="currentColor"/><path d="M12 4V2m0 8V8m0 14v-2m0-4v-2"/></symbol><symbol id="github" viewBox="0 0 24 24"><path d="M9 19c-5 1.5-5-2.5-7-3m14 6v-3.87a3.37 3.37 0 0 0-.94-2.61c3.14-.35 6.44-1.54 6.44-7A5.44 5.44 0 0 0 20 4.77 5.07 5.07 0 0 0 19.91 1S18.73.65 16 2.48a13.38 13.38 0 0 0-7 0C6.27.65 5.09 1 5.09 1A5.07 5.07 0 0 0 5 4.77a5.44 5.44 0 0 0-1.5 3.78c0 5.42 3.3 6.61 6.44 7A3.37 3.37 0 0 0 9 18.13V22"></path></symbol><symbol id="heart" viewBox="0 0 24 24"><path d="M20.84 4.61a5.5 5.5 0 0 0-7.78 0L12 5.67l-1.06-1.06a5.5 5.5 0 0 0-7.78 7.78l1.06 1.06L12 21.23l7.78-7.78 1.06-1.06a5.5 5.5 0 0 0 0-7.78z"></path></symbol><symbol id="heart-full" viewBox="0 0 24 24"><path fill="currentColor" d="M20.84 4.61a5.5 5.5 0 0 0-7.78 0L12 5.67l-1.06-1.06a5.5 5.5 0 0 0-7.78 7.78l1.06 1.06L12 21.23l7.78-7.78 1.06-1.06a5.5 5.5 0 0 0 0-7.78z"></path></symbol><symbol id="help-circle" viewBox="0 0 24 24"><circle cx="12" cy="12" r="10"></circle><path d="M9.09 9a3 3 0 0 1 5.83 1c0 2-3 3-3 3"></path><line x1="12" y1="17" x2="12.01" y2="17"></line></symbol><symbol id="info" viewBox="0 0 24 24"><circle cx="12" cy="12" r="10"></circle><line x1="12" y1="16" x2="12" y2="12"></line><line x1="12" y1="8" x2="12.01" y2="8"></line></symbol><symbol id="layers" viewBox="0 0 24 24"><polygon points="12 2 2 7 12 12 22 7 12 2"></polygon><polyline points="2 17 12 22 22 17"></polyline><polyline points="2 12 12 17 22 12"></polyline></symbol><symbol id="loader" viewBox="0 0 24 24"><line x1="12" y1="2" x2="12" y2="6"></line><line x1="12" y1="18" x2="12" y2="22"></line><line x1="4.93" y1="4.93" x2="7.76" y2="7.76"></line><line x1="16.24" y1="16.24" x2="19.07" y2="19.07"></line><line x1="2" y1="12" x2="6" y2="12"></line><line x1="18" y1="12" x2="22" y2="12"></line><line x1="4.93" y1="19.07" x2="7.76" y2="16.24"></line><line x1="16.24" y1="7.76" x2="19.07" y2="4.93"></line></symbol><symbol id="menu" viewBox="0 0 24 24"><line x1="3" y1="12" x2="21" y2="12"></line><line x1="3" y1="6" x2="21" y2="6"></line><line x1="3" y1="18" x2="21" y2="18"></line></symbol><symbol id="minimize-2" viewBox="0 0 24 24"><polyline points="4 14 10 14 10 20"></polyline><polyline points="20 10 14 10 14 4"></polyline><line x1="14" y1="10" x2="21" y2="3"></line><line x1="3" y1="21" x2="10" y2="14"></line></symbol><symbol id="minus-circle" viewBox="0 0 24 24"><circle cx="12" cy="12" r="10"></circle><line x1="8" y1="12" x2="16" y2="12"></line></symbol><symbol id="moon" viewBox="0 0 24 24"><path d="M21 12.79A9 9 0 1 1 11.21 3 7 7 0 0 0 21 12.79z"></path></symbol><symbol id="paperclip" viewBox="0 0 24 24"><path d="M21.44 11.05l-9.19 9.19a6 6 0 0 1-8.49-8.49l9.19-9.19a4 4 0 0 1 5.66 5.66l-9.2 9.19a2 2 0 0 1-2.83-2.83l8.49-8.48"></path></symbol><symbol id="play" viewBox="0 0 24 24"><polygon points="5 3 19 12 5 21 5 3"></polygon></symbol><symbol id="plus-circle" viewBox="0 0 24 24"><circle cx="12" cy="12" r="10"></circle><line x1="12" y1="8" x2="12" y2="16"></line><line x1="8" y1="12" x2="16" y2="12"></line></symbol><symbol id="rewind" viewBox="0 0 24 24"><polygon points="11 19 2 12 11 5 11 19"></polygon><polygon points="22 19 13 12 22 5 22 19"></polygon></symbol><symbol id="save" viewBox="0 0 24 24"><path d="M19 21H5a2 2 0 0 1-2-2V5a2 2 0 0 1 2-2h11l5 5v11a2 2 0 0 1-2 2z"></path><polyline points="17 21 17 13 7 13 7 21"></polyline><polyline points="7 3 7 8 15 8"></polyline></symbol><symbol id="settings" viewBox="0 0 24 24"><circle cx="12" cy="12" r="3"></circle><path d="M19.4 15a1.65 1.65 0 0 0 .33 1.82l.06.06a2 2 0 0 1 0 2.83 2 2 0 0 1-2.83 0l-.06-.06a1.65 1.65 0 0 0-1.82-.33 1.65 1.65 0 0 0-1 1.51V21a2 2 0 0 1-2 2 2 2 0 0 1-2-2v-.09A1.65 1.65 0 0 0 9 19.4a1.65 1.65 0 0 0-1.82.33l-.06.06a2 2 0 0 1-2.83 0 2 2 0 0 1 0-2.83l.06-.06a1.65 1.65 0 0 0 .33-1.82 1.65 1.65 0 0 0-1.51-1H3a2 2 0 0 1-2-2 2 2 0 0 1 2-2h.09A1.65 1.65 0 0 0 4.6 9a1.65 1.65 0 0 0-.33-1.82l-.06-.06a2 2 0 0 1 0-2.83 2 2 0 0 1 2.83 0l.06.06a1.65 1.65 0 0 0 1.82.33H9a1.65 1.65 0 0 0 1-1.51V3a2 2 0 0 1 2-2 2 2 0 0 1 2 2v.09a1.65 1.65 0 0 0 1 1.51 1.65 1.65 0 0 0 1.82-.33l.06-.06a2 2 0 0 1 2.83 0 2 2 0 0 1 0 2.83l-.06.06a1.65 1.65 0 0 0-.33 1.82V9a1.65 1.65 0 0 0 1.51 1H21a2 2 0 0 1 2 2 2 2 0 0 1-2 2h-.09a1.65 1.65 0 0 0-1.51 1z"></path></symbol><symbol id="slash" viewBox="0 0 24 24" fill="none" stroke="currentColor" stroke-width="2" stroke-linecap="round" stroke-linejoin="round" class="feather feather-slash"><circle cx="12" cy="12" r="10"></circle><line x1="4.93" y1="4.93" x2="19.07" y2="19.07"></line></symbol><symbol id="star" viewBox="0 0 24 24"><polygon points="12 2 15.09 8.26 22 9.27 17 14.14 18.18 21.02 12 17.77 5.82 21.02 7 14.14 2 9.27 8.91 8.26 12 2"></polygon></symbol><symbol id="sun" viewBox="0 0 24 24"><circle cx="12" cy="12" r="5"></circle><line x1="12" y1="1" x2="12" y2="3"></line><line x1="12" y1="21" x2="12" y2="23"></line><line x1="4.22" y1="4.22" x2="5.64" y2="5.64"></line><line x1="18.36" y1="18.36" x2="19.78" y2="19.78"></line><line x1="1" y1="12" x2="3" y2="12"></line><line x1="21" y1="12" x2="23" y2="12"></line><line x1="4.22" y1="19.78" x2="5.64" y2="18.36"></line><line x1="18.36" y1="5.64" x2="19.78" y2="4.22"></line></symbol><symbol id="thermometer" viewBox="0 0 24 24"><path d="M14 14.76V3.5a2.5 2.5 0 0 0-5 0v11.26a4.5 4.5 0 1 0 5 0z"></path></symbol><symbol id="trash-2" viewBox="0 0 24 24" fill="none" stroke="currentColor" stroke-width="2" stroke-linecap="round" stroke-linejoin="round" class="feather feather-trash-2"><polyline points="3 6 5 6 21 6"></polyline><path d="M19 6v14a2 2 0 0 1-2 2H7a2 2 0 0 1-2-2V6m3 0V4a2 2 0 0 1 2-2h4a2 2 0 0 1 2 2v2"></path><line x1="10" y1="11" x2="10" y2="17"></line><line x1="14" y1="11" x2="14" y2="17"></line></symbol><symbol id="upload" viewBox="0 0 24 24"><path d="M21 15v4a2 2 0 0 1-2 2H5a2 2 0 0 1-2-2v-4"></path><polyline points="17 8 12 3 7 8"></polyline><line x1="12" y1="3" x2="12" y2="15"></line></symbol><symbol id="x" viewBox="0 0 24 24"><line x1="18" y1="6" x2="6" y2="18"></line><line x1="6" y1="6" x2="18" y2="18"></line></symbol><symbol id="user" viewBox="0 0 24 24" fill="none" stroke="currentColor" stroke-width="2" stroke-linecap="round" stroke-linejoin="round" class="feather feather-user"><path d="M20 21v-2a4 4 0 0 0-4-4H8a4 4 0 0 0-4 4v2"></path><circle cx="12" cy="7" r="4"></circle></symbol><symbol id="user-full" viewBox="0 0 24 24" fill="currentColor" stroke="currentColor" stroke-width="2" stroke-linecap="butt" stroke-linejoin="round" class="feather feather-user-full"><path d="M20 21v-2a4 4 0 0 0-4-4H8a4 4 0 0 0-4 4v2"></path><circle cx="12" cy="7" r="4"></circle></symbol><symbol id="wifi-off" viewBox="0 0 24 24"><line x1="1" y1="1" x2="23" y2="23"></line><path d="M16.72 11.06A10.94 10.94 0 0 1 19 12.55"></path><path d="M5 12.55a10.94 10.94 0 0 1 5.17-2.39"></path><path d="M10.71 5.05A16 16 0 0 1 22.58 9"></path><path d="M1.42 9a15.91 15.91 0 0 1 4.7-2.88"></path><path d="M8.53 16.11a6 6 0 0 1 6.95 0"></path><line x1="12" y1="20" x2="12.01" y2="20"></line></symbol><symbol id="wifi" viewBox="0 0 24 24"><path d="M5 12.55a11 11 0 0 1 14.08 0"></path><path d="M1.42 9a16 16 0 0 1 21.16 0"></path><path d="M8.53 16.11a6 6 0 0 1 6.95 0"></path><line x1="12" y1="20" x2="12.01" y2="20"></line></symbol><symbol id="zoom-in" viewBox="0 0 24 24"><circle cx="11" cy="11" r="8"></circle><line x1="21" y1="21" x2="16.65" y2="16.65"></line><line x1="11" y1="8" x2="11" y2="14"></line><line x1="8" y1="11" x2="14" y2="11"></line></symbol><symbol id="zoom-out" viewBox="0 0 24 24"><circle cx="11" cy="11" r="8"></circle><line x1="21" y1="21" x2="16.65" y2="16.65"></line><line x1="8" y1="11" x2="14" y2="11"></line></symbol></defs></svg>
